<svg xmlns="http://www.w3.org/2000/svg" xmlns:xlink="http://www.w3.org/1999/xlink" viewBox="0 0 960 1920">
  <defs>
    <style>
      .cls-1 {
        isolation: isolate;
        opacity: 0.8;
      }

      .cls-2 {
        fill: none;
        fill-rule: evenodd;
      }
    </style>
  </defs>
  <g id="case" class="cls-1">
    <path class="cls-2" d="M449,678c46.38-9.07,85.54,2.14,108,23,11.57,10.75,25,19.25,33,34,1.47,2.7,8.84,13.28,10,16,7.51,17.56,12.2,39.11,8,58,4.8,20.13,2.2,36.47-4,52,0,5.73-7.6,17.13-10,21-7.58,13.58-19.38,27.16-31,35-3.72,2.51-7.14,5.74-11,8-5.31,3.11-7.83,5.9-13.61,8.22-4.43,1.78-13,6-18.39,7.78-9.67,3.09-10.1,3.54-21,5-3.29.44-13.89,1.37-18,1-27.75-2.52-43.75-5.5-65-17a207,207,0,0,1-33-23c-6.82-5.91-17.13-21.58-22-31-14.33-27.7-18.22-42.55-15-87,.33-4,2.67-11,3-15a183.83,183.83,0,0,1,10-25c2.5-5.14,6.19-9.72,9-15,5.36-10.07,15.8-19,24-26,9.87-8.38,19-15.08,31-21C430.76,683.16,439.55,680.89,449,678Z"/>
    <path class="cls-2" d="M503,699a123.54,123.54,0,0,0-64,6c-9.25,3.38-31.21,10.29-52,42-19.15,33.07-20.12,60-17,84,.72,5.59,16.6,42.92,29,54,26.48,23.65,33.33,27.6,75,34,33.07-.31,43.93-4.31,63-14,19.66-10,41-35.08,50-64,3.53-11.38,1.87-27.61,1-35-4.32-36.6-5.83-66-62-99"/>
  </g>
  <g id="buckle" class="cls-1">
    <path class="cls-2" d="M422,51c37.33,0,74.67-1,112-1,4.69.58,8.92.36,14.17,2.92,4.7,1.88,5.26,4.36,6.83,8.08.74,15.1,0,33,0,46,0,18.48.22,41,0,57v33c-.21,2.71.46,6.17,0,9,0,3.91.48,5.15,0,12,.23,6.52.17,9.16,0,18,0,3.33-1,6.67-1,10a13.09,13.09,0,0,1-8,8,102.76,102.76,0,0,0-14,2H516c-2.36.66-9.27.07-12,0-8.93-.23-7.39.2-15,0-22.33,0-44.67-1-67-1-4.17-.39-5.37.63-11-2-3.25-1.58-5-3.17-7-8-.05-23.75-.2-61.13,0-79,.08-6.68.19-7.46,0-13,0-.86,0-5.48,0-7,0-7.64.4-8.67,0-15-.17-2.6,0-6.9,0-10,.05-4.27,0-7.29,0-9,0-3.34,0-12.18,0-14-.05-4.72-.12-11.49,0-18,.11-5.84-1.6-13.82,1-18a13.23,13.23,0,0,1,9-9C416,51.55,419,51.68,422,51Z"/>
    <path class="cls-2" d="M416,226c1.57,4.86,13.81,2.73,20,3,7.57.33,12,.23,19,0h12c4.21-.05,3.33-.27,12,0,4.26.13,9.29-.13,11,0,7.87.62,46.88.18,53-1,2-3.62.67-10,1-11-.21-9.5,0-7.49,0-14,0-1.63,0-7.37,0-9,.1-7.45-.28-27.89,0-35,.11-4.57.47-7.78,0-13,.37-6.18-.41-11.1,0-15-.08-11.24.59-1.34,0-21,.31-6.87,2.51-25.16-2-27-7.08-1.63-22.67-1-30-1,0,.33-8-.33-8,0-6.17.35-14.5-1.34-18,1-1.34,5.25.8,21,.54,27.25.24,12.87-.65,48.42-.54,62.75-4.12,2.5-5.38,2.5-12,0-1-15.2-1.5-47.36-1-63,.23-7.17.06-19.59,0-28-14.78-.11-41.7,0-56,0-.33,1-2.17,3.5-2,8-.3,6.13.76,17.57,1,24,.11,2.78.11,8.72,0,13-.08,3.14.06,4.47,0,12-.06,6.95-.12,16.37,0,25,0,2.73,0,6.77,0,10C416,194,415,206,416,226Z"/>
  </g>
  <g id="keeper" class="cls-1">
    <path class="cls-2" d="M544,302c6.09.59,9.82.62,11,3,3.12,8,1.4,46,0,53-2.29,1.67-11.14,1.76-17,2-9.58.1-23.13,0-34,0H431c-11.14,0-26.54-1.41-28-6-3.14-9.9-1.35-16.35-1-28,.14-4.74-.45-7.36,0-17,1-3.26.64-3.92,4-6,9.73-2.53,24.82-1,41-1h29c3.63-.13,9.92-.11,15,0,13.06.29,25.13-.47,41,0C532.33,301,543.67,303,544,302Z"/>
  </g>
  <g id="shadow_Image" data-name="shadow Image">
    <image id="shadow_Image-2" data-name="shadow Image" width="287" height="1832" transform="translate(344 49)" xlink:href="white-watch1.png"/>
  </g>
</svg>
